<?xml version="1.0" encoding="UTF-8"?>
<!--Generator: Apple Native CoreSVG 232.5-->
<!DOCTYPE svg
PUBLIC "-//W3C//DTD SVG 1.1//EN"
       "http://www.w3.org/Graphics/SVG/1.1/DTD/svg11.dtd">
<svg version="1.1" xmlns="http://www.w3.org/2000/svg" xmlns:xlink="http://www.w3.org/1999/xlink" width="26.1414" height="25.8179">
 <g>
  <rect height="25.8179" opacity="0" width="26.1414" x="0" y="0"/>
  <path d="M25.7874 12.9211C25.7874 20.0012 19.9707 25.8179 12.8906 25.8179C5.82275 25.8179 0 20.0012 0 12.9211C0 5.85327 5.81665 0.0305176 12.8845 0.0305176C19.9646 0.0305176 25.7874 5.85327 25.7874 12.9211ZM7.34253 16.5161L6.65283 18.2434C6.45142 18.75 6.9458 19.2017 7.41577 19.0308L9.18579 18.3594L17.0532 10.5225L15.1855 8.64868ZM16.8884 6.95801L15.9729 7.89185L17.8223 9.73511L18.7561 8.83179C19.2505 8.3374 19.2566 7.70874 18.7927 7.25098L18.4631 6.90918C17.9993 6.44531 17.3767 6.47583 16.8884 6.95801Z" fill="#28cd41"/>
 </g>
</svg>
