<?xml version="1.0" encoding="UTF-8"?>
<!--Generator: Apple Native CoreSVG 232.5-->
<!DOCTYPE svg
PUBLIC "-//W3C//DTD SVG 1.1//EN"
       "http://www.w3.org/Graphics/SVG/1.1/DTD/svg11.dtd">
<svg version="1.1" xmlns="http://www.w3.org/2000/svg" xmlns:xlink="http://www.w3.org/1999/xlink" width="25.9766" height="23.3643">
 <g>
  <rect height="23.3643" opacity="0" width="25.9766" x="0" y="0"/>
  <path d="M4.30908 23.3643L21.3196 23.3643C24.1028 23.3643 25.6226 21.8445 25.6226 19.0796L25.6226 4.30908C25.6226 1.53809 24.1028 0.0244141 21.3196 0.0244141L4.30908 0.0244141C1.52588 0.0244141 0 1.53198 0 4.30908L0 19.0796C0 21.8506 1.52588 23.3643 4.30908 23.3643ZM4.54102 20.2148C3.62549 20.2148 3.14941 19.7754 3.14941 18.811L3.14941 7.94678C3.14941 6.98853 3.62549 6.54907 4.54102 6.54907L21.0754 6.54907C21.991 6.54907 22.4731 6.98853 22.4731 7.94678L22.4731 18.811C22.4731 19.7754 21.991 20.2148 21.0754 20.2148ZM10.5225 10.5103L11.2427 10.5103C11.6882 10.5103 11.8408 10.3699 11.8408 9.92432L11.8408 9.2041C11.8408 8.75854 11.6882 8.61206 11.2427 8.61206L10.5225 8.61206C10.0769 8.61206 9.91821 8.75854 9.91821 9.2041L9.91821 9.92432C9.91821 10.3699 10.0769 10.5103 10.5225 10.5103ZM14.3982 10.5103L15.1184 10.5103C15.564 10.5103 15.7288 10.3699 15.7288 9.92432L15.7288 9.2041C15.7288 8.75854 15.564 8.61206 15.1184 8.61206L14.3982 8.61206C13.9526 8.61206 13.7939 8.75854 13.7939 9.2041L13.7939 9.92432C13.7939 10.3699 13.9526 10.5103 14.3982 10.5103ZM18.28 10.5103L19.0002 10.5103C19.4458 10.5103 19.6045 10.3699 19.6045 9.92432L19.6045 9.2041C19.6045 8.75854 19.4458 8.61206 19.0002 8.61206L18.28 8.61206C17.8345 8.61206 17.6819 8.75854 17.6819 9.2041L17.6819 9.92432C17.6819 10.3699 17.8345 10.5103 18.28 10.5103ZM6.64673 14.325L7.35474 14.325C7.8125 14.325 7.96509 14.1846 7.96509 13.739L7.96509 13.0188C7.96509 12.5732 7.8125 12.4329 7.35474 12.4329L6.64673 12.4329C6.18896 12.4329 6.03638 12.5732 6.03638 13.0188L6.03638 13.739C6.03638 14.1846 6.18896 14.325 6.64673 14.325ZM10.5225 14.325L11.2427 14.325C11.6882 14.325 11.8408 14.1846 11.8408 13.739L11.8408 13.0188C11.8408 12.5732 11.6882 12.4329 11.2427 12.4329L10.5225 12.4329C10.0769 12.4329 9.91821 12.5732 9.91821 13.0188L9.91821 13.739C9.91821 14.1846 10.0769 14.325 10.5225 14.325ZM14.3982 14.325L15.1184 14.325C15.564 14.325 15.7288 14.1846 15.7288 13.739L15.7288 13.0188C15.7288 12.5732 15.564 12.4329 15.1184 12.4329L14.3982 12.4329C13.9526 12.4329 13.7939 12.5732 13.7939 13.0188L13.7939 13.739C13.7939 14.1846 13.9526 14.325 14.3982 14.325ZM18.28 14.325L19.0002 14.325C19.4458 14.325 19.6045 14.1846 19.6045 13.739L19.6045 13.0188C19.6045 12.5732 19.4458 12.4329 19.0002 12.4329L18.28 12.4329C17.8345 12.4329 17.6819 12.5732 17.6819 13.0188L17.6819 13.739C17.6819 14.1846 17.8345 14.325 18.28 14.325ZM6.64673 18.1458L7.35474 18.1458C7.8125 18.1458 7.96509 18.0054 7.96509 17.5537L7.96509 16.8396C7.96509 16.3879 7.8125 16.2537 7.35474 16.2537L6.64673 16.2537C6.18896 16.2537 6.03638 16.3879 6.03638 16.8396L6.03638 17.5537C6.03638 18.0054 6.18896 18.1458 6.64673 18.1458ZM10.5225 18.1458L11.2427 18.1458C11.6882 18.1458 11.8408 18.0054 11.8408 17.5537L11.8408 16.8396C11.8408 16.3879 11.6882 16.2537 11.2427 16.2537L10.5225 16.2537C10.0769 16.2537 9.91821 16.3879 9.91821 16.8396L9.91821 17.5537C9.91821 18.0054 10.0769 18.1458 10.5225 18.1458ZM14.3982 18.1458L15.1184 18.1458C15.564 18.1458 15.7288 18.0054 15.7288 17.5537L15.7288 16.8396C15.7288 16.3879 15.564 16.2537 15.1184 16.2537L14.3982 16.2537C13.9526 16.2537 13.7939 16.3879 13.7939 16.8396L13.7939 17.5537C13.7939 18.0054 13.9526 18.1458 14.3982 18.1458Z" fill="#ff3b30"/>
 </g>
</svg>
