<?xml version="1.0" encoding="UTF-8"?>
<!--Generator: Apple Native CoreSVG 232.5-->
<!DOCTYPE svg
PUBLIC "-//W3C//DTD SVG 1.1//EN"
       "http://www.w3.org/Graphics/SVG/1.1/DTD/svg11.dtd">
<svg version="1.1" xmlns="http://www.w3.org/2000/svg" xmlns:xlink="http://www.w3.org/1999/xlink" width="23.5718" height="23.23">
 <g>
  <rect height="23.23" opacity="0" width="23.5718" x="0" y="0"/>
  <path d="M21.637 1.59302C22.9065 2.85645 23.2178 4.55322 23.2178 7.03125L23.2178 16.1804C23.2178 18.6584 22.9065 20.3491 21.637 21.6248C20.3674 22.8943 18.6462 23.2178 16.1804 23.2178L7.03125 23.2178C4.57764 23.2178 2.86255 22.8943 1.58081 21.6248C0.311279 20.3552 0 18.6584 0 16.1804L0 7.01904C0 4.55933 0.311279 2.86255 1.58081 1.59302C2.85645 0.323486 4.57764 0 7.01904 0L16.1804 0C18.6462 0 20.3613 0.323486 21.637 1.59302ZM10.9497 4.66919L10.9497 10.6384C10.7849 10.6567 10.614 10.6689 10.4553 10.6995L10.4553 5.2063C10.4553 4.74243 10.0769 4.37012 9.59473 4.37012C9.12476 4.37012 8.75854 4.74243 8.75854 5.2063L8.75854 11.1694C8.56934 11.2427 8.42896 11.3342 8.27026 11.4136L8.27026 7.2998C8.27026 6.81152 7.89185 6.43921 7.43408 6.43921C6.9397 6.43921 6.56128 6.81152 6.56128 7.2998L6.56128 13.9404C6.56128 16.9739 8.66699 18.8538 11.4868 18.8538C13.3545 18.8538 14.7095 18.1458 15.6921 16.5833C16.4856 15.4785 17.0044 13.8 17.334 12.7502C17.5598 12.03 17.8711 11.1206 17.9199 10.73C17.9749 10.2783 17.7124 9.91821 17.2729 9.86328C16.7664 9.79614 16.4246 10.0708 16.1621 10.6323L15.2222 12.7014C15.155 12.8784 15.0818 12.9333 14.9963 12.9333C14.8804 12.9333 14.8193 12.8662 14.8193 12.6892L14.8193 5.59692C14.8193 5.11475 14.447 4.74243 13.9771 4.74243C13.4888 4.74243 13.1287 5.12085 13.1287 5.59692L13.1287 10.8459C12.9761 10.8032 12.8113 10.7544 12.6404 10.7056L12.6404 4.66919C12.6404 4.19312 12.2742 3.8147 11.7981 3.8147C11.3159 3.8147 10.9497 4.19312 10.9497 4.66919Z" fill="#007aff"/>
 </g>
</svg>
