<?xml version="1.0" encoding="UTF-8"?>
<!--Generator: Apple Native CoreSVG 232.5-->
<!DOCTYPE svg
PUBLIC "-//W3C//DTD SVG 1.1//EN"
       "http://www.w3.org/Graphics/SVG/1.1/DTD/svg11.dtd">
<svg version="1.1" xmlns="http://www.w3.org/2000/svg" xmlns:xlink="http://www.w3.org/1999/xlink" width="35.0018" height="31.2505">
 <g>
  <rect height="31.2505" opacity="0" width="35.0018" x="0" y="0"/>
  <path d="M27.1811 4.96241L27.1811 10.1511C27.0363 10.2042 26.9129 10.2635 26.7782 10.3396C25.3927 9.52784 23.8913 9.74146 22.7804 10.3762C21.7795 9.74756 20.5832 9.71094 19.5761 10.0344L18.3554 6.72632C17.6474 4.76099 15.6576 3.80274 13.7899 4.48023C11.8612 5.17603 10.964 7.19019 11.6903 9.14942L14.0219 15.552L13.8266 15.3811C13.2223 15.1675 12.5753 15.1919 11.9345 15.436C10.0424 16.144 9.07803 18.0911 9.74332 19.971C9.92032 20.4409 10.1828 20.8926 10.4757 21.2588L10.924 21.8081L6.69766 21.8081C4.00601 21.8081 2.55948 20.3738 2.55948 17.7004L2.55948 4.96241C2.55948 2.27686 4.00601 0.848636 6.69766 0.848636L23.0551 0.848636C25.7406 0.848636 27.1811 2.27686 27.1811 4.96241Z" fill="#ff9500"/>
  <path d="M27.2726 28.6318C32.4423 26.7581 34.2245 22.4368 32.2409 16.9497L31.4047 14.6426C30.654 12.5796 29.1403 11.5542 27.8891 12.0059C27.5534 12.134 27.4252 12.4026 27.5412 12.7261L27.8891 13.6904C28.0233 14.075 27.9257 14.3435 27.706 14.429C27.4618 14.5144 27.1994 14.3862 27.0651 13.9895L26.8393 13.3608C26.3693 12.0913 25.2401 11.5237 24.0988 11.9326C23.5495 12.134 23.3542 12.5002 23.5312 12.9946L24.0194 14.3069C24.1598 14.7036 24.0622 14.96 23.8363 15.0332C23.58 15.1248 23.342 15.0149 23.2016 14.6182L22.756 13.3853C22.2555 12.0059 21.1813 11.5542 20.0216 11.9631C19.4967 12.1585 19.2892 12.5369 19.4662 13.0068L20.4123 15.6252C20.5587 16.0098 20.4428 16.2783 20.2353 16.3516C19.9911 16.437 19.747 16.3149 19.6066 15.9182L16.506 7.40381C16.1581 6.46387 15.2975 6.04883 14.4735 6.3479C13.5946 6.67139 13.2162 7.53199 13.558 8.47193L18.0197 20.7034C18.1112 20.9597 18.0075 21.1489 17.861 21.1978C17.7145 21.2466 17.5619 21.2039 17.3849 21.0147L14.443 17.8347C13.9425 17.2854 13.3383 17.0352 12.6425 17.2976C11.7331 17.6394 11.3241 18.4695 11.6293 19.3118C11.7209 19.5925 11.8734 19.8306 12.026 20.0198L16.1276 25.0491C19.4845 29.1751 23.2931 30.0784 27.2726 28.6318Z" fill="#ff9500"/>
 </g>
</svg>
