<?xml version="1.0" encoding="UTF-8"?>
<!--Generator: Apple Native CoreSVG 232.5-->
<!DOCTYPE svg
PUBLIC "-//W3C//DTD SVG 1.1//EN"
       "http://www.w3.org/Graphics/SVG/1.1/DTD/svg11.dtd">
<svg version="1.1" xmlns="http://www.w3.org/2000/svg" xmlns:xlink="http://www.w3.org/1999/xlink" width="21.4844" height="27.7954">
 <g>
  <rect height="27.7954" opacity="0" width="21.4844" x="0" y="0"/>
  <path d="M10.1807 26.5747C14.4653 26.5747 17.4927 24.2554 19.1162 19.6777L21.2646 13.6353C21.4111 13.2202 21.4844 12.8174 21.4844 12.4512C21.4844 11.1572 20.5078 10.2539 19.2627 10.2539C18.4204 10.2539 17.6636 10.7544 17.2485 11.7188L16.4551 13.6719C16.4307 13.7207 16.394 13.7573 16.3452 13.7573C16.2842 13.7573 16.2598 13.7085 16.2598 13.6475L16.2598 3.85742C16.2598 2.4292 15.3687 1.52588 14.0015 1.52588C13.501 1.52588 13.0493 1.70898 12.7075 2.02637C12.5488 0.769043 11.7432 0 10.5347 0C9.35059 0 8.52051 0.793457 8.3374 2.00195C8.03223 1.69678 7.59277 1.52588 7.15332 1.52588C5.88379 1.52588 5.0415 2.41699 5.0415 3.77197L5.0415 5.12695C4.71191 4.78516 4.21143 4.60205 3.69873 4.60205C2.4292 4.60205 1.55029 5.52979 1.55029 6.90918L1.55029 17.395C1.55029 23.1079 5.01709 26.5747 10.1807 26.5747ZM10.1196 24.8901C5.79834 24.8901 3.16162 22.1069 3.16162 17.1997L3.16162 7.08008C3.16162 6.55518 3.49121 6.20117 4.00391 6.20117C4.50439 6.20117 4.87061 6.55518 4.87061 7.08008L4.87061 13.3179C4.87061 13.7695 5.23682 14.0747 5.62744 14.0747C6.04248 14.0747 6.4209 13.7695 6.4209 13.3179L6.4209 3.9917C6.4209 3.4668 6.75049 3.10059 7.25098 3.10059C7.76367 3.10059 8.11768 3.4668 8.11768 3.9917L8.11768 12.6953C8.11768 13.147 8.48389 13.4521 8.88672 13.4521C9.30176 13.4521 9.66797 13.147 9.66797 12.6953L9.66797 2.47803C9.66797 1.95312 10.022 1.57471 10.5347 1.57471C11.0229 1.57471 11.377 1.95312 11.377 2.47803L11.377 12.6953C11.377 13.1226 11.7188 13.4521 12.146 13.4521C12.561 13.4521 12.9272 13.1226 12.9272 12.6953L12.9272 3.9917C12.9272 3.4668 13.2812 3.10059 13.7817 3.10059C14.2822 3.10059 14.6362 3.4668 14.6362 3.9917L14.6362 16.0034C14.6362 16.6138 14.9902 16.9678 15.5029 16.9678C15.9424 16.9678 16.3086 16.7725 16.5894 16.1621L18.3472 12.2437C18.5791 11.7188 19.0308 11.5356 19.458 11.6943C19.9341 11.8652 20.0806 12.3169 19.8608 12.915L17.627 19.1528C16.1377 23.3154 13.5254 24.8901 10.1196 24.8901Z" fill="#000000" fill-opacity="0.85"/>
 </g>
</svg>
