<?xml version="1.0" encoding="UTF-8"?>
<!--Generator: Apple Native CoreSVG 232.5-->
<!DOCTYPE svg
PUBLIC "-//W3C//DTD SVG 1.1//EN"
       "http://www.w3.org/Graphics/SVG/1.1/DTD/svg11.dtd">
<svg version="1.1" xmlns="http://www.w3.org/2000/svg" xmlns:xlink="http://www.w3.org/1999/xlink" width="75.4639" height="60.8643">
 <g>
  <rect height="60.8643" opacity="0" width="75.4639" x="0" y="0"/>
  <path d="M61.6699 15.5518L61.6699 29.5026C61.0402 29.4108 60.3952 29.3701 59.7412 29.3701C59.062 29.3701 58.3922 29.4142 57.7393 29.5143L57.7393 22.5586C57.7393 20.3125 56.5186 19.1406 54.3457 19.1406L20.3125 19.1406C18.1396 19.1406 16.9434 20.3125 16.9434 22.5586L16.9434 45.5811C16.9434 47.8516 18.1396 48.999 20.3125 48.999L44.5005 48.999C44.839 50.3991 45.3824 51.7189 46.0954 52.9297L20.6787 52.9297C15.5762 52.9297 13.0127 50.415 13.0127 45.3613L13.0127 15.5518C13.0127 10.498 15.5762 7.9834 20.6787 7.9834L54.0283 7.9834C59.1309 7.9834 61.6699 10.5225 61.6699 15.5518Z" fill="#000000" fill-opacity="0.85"/>
  <path d="M27.0508 41.333L27.0508 42.7734C27.0508 43.6279 26.7822 43.8965 25.9033 43.8965L24.4873 43.8965C23.6084 43.8965 23.3398 43.6279 23.3398 42.7734L23.3398 41.333C23.3398 40.4785 23.6084 40.2344 24.4873 40.2344L25.9033 40.2344C26.7822 40.2344 27.0508 40.4785 27.0508 41.333ZM35.1562 41.333L35.1562 42.7734C35.1562 43.6279 34.8877 43.8965 34.0332 43.8965L32.5928 43.8965C31.7383 43.8965 31.4453 43.6279 31.4453 42.7734L31.4453 41.333C31.4453 40.4785 31.7383 40.2344 32.5928 40.2344L34.0332 40.2344C34.8877 40.2344 35.1562 40.4785 35.1562 41.333ZM43.2861 41.333L43.2861 42.7734C43.2861 43.6279 42.9932 43.8965 42.1387 43.8965L40.6982 43.8965C39.8438 43.8965 39.5508 43.6279 39.5508 42.7734L39.5508 41.333C39.5508 40.4785 39.8438 40.2344 40.6982 40.2344L42.1387 40.2344C42.9932 40.2344 43.2861 40.4785 43.2861 41.333ZM27.0508 33.3496L27.0508 34.79C27.0508 35.6445 26.7822 35.8887 25.9033 35.8887L24.4873 35.8887C23.6084 35.8887 23.3398 35.6445 23.3398 34.79L23.3398 33.3496C23.3398 32.4951 23.6084 32.251 24.4873 32.251L25.9033 32.251C26.7822 32.251 27.0508 32.4951 27.0508 33.3496ZM35.1562 33.3496L35.1562 34.79C35.1562 35.6445 34.8877 35.8887 34.0332 35.8887L32.5928 35.8887C31.7383 35.8887 31.4453 35.6445 31.4453 34.79L31.4453 33.3496C31.4453 32.4951 31.7383 32.251 32.5928 32.251L34.0332 32.251C34.8877 32.251 35.1562 32.4951 35.1562 33.3496ZM43.2861 33.3496L43.2861 34.79C43.2861 35.6445 42.9932 35.8887 42.1387 35.8887L40.6982 35.8887C39.8438 35.8887 39.5508 35.6445 39.5508 34.79L39.5508 33.3496C39.5508 32.4951 39.8438 32.251 40.6982 32.251L42.1387 32.251C42.9932 32.251 43.2861 32.4951 43.2861 33.3496ZM35.1562 25.3662L35.1562 26.8066C35.1562 27.6611 34.8877 27.9053 34.0332 27.9053L32.5928 27.9053C31.7383 27.9053 31.4453 27.6611 31.4453 26.8066L31.4453 25.3662C31.4453 24.5117 31.7383 24.2432 32.5928 24.2432L34.0332 24.2432C34.8877 24.2432 35.1562 24.5117 35.1562 25.3662ZM43.2861 25.3662L43.2861 26.8066C43.2861 27.6611 42.9932 27.9053 42.1387 27.9053L40.6982 27.9053C39.8438 27.9053 39.5508 27.6611 39.5508 26.8066L39.5508 25.3662C39.5508 24.5117 39.8438 24.2432 40.6982 24.2432L42.1387 24.2432C42.9932 24.2432 43.2861 24.5117 43.2861 25.3662ZM51.3916 25.3662L51.3916 26.8066C51.3916 27.6611 51.0986 27.9053 50.2441 27.9053L48.8037 27.9053C47.9492 27.9053 47.6807 27.6611 47.6807 26.8066L47.6807 25.3662C47.6807 24.5117 47.9492 24.2432 48.8037 24.2432L50.2441 24.2432C51.0986 24.2432 51.3916 24.5117 51.3916 25.3662Z" fill="#000000" fill-opacity="0.85"/>
  <path d="M72.1436 45.1172C72.1436 51.9043 66.4551 57.5195 59.7412 57.5195C52.9297 57.5195 47.3389 51.9531 47.3389 45.1172C47.3389 38.3301 52.9297 32.7148 59.7412 32.7148C66.5283 32.7148 72.1436 38.3057 72.1436 45.1172ZM57.666 50.9766C57.666 52.124 58.6182 53.0273 59.7412 53.0273C60.8643 53.0273 61.792 52.124 61.792 50.9766C61.792 49.8535 60.8887 48.9014 59.7412 48.9014C58.6182 48.9014 57.666 49.8535 57.666 50.9766ZM58.0566 38.8184L58.252 45.8008C58.2764 46.6309 58.8867 47.2168 59.7412 47.2168C60.5957 47.2168 61.1816 46.6309 61.2061 45.8008L61.4258 38.8184C61.4502 37.8174 60.7666 37.1338 59.7412 37.1338C58.7158 37.1338 58.0322 37.8174 58.0566 38.8184Z" fill="#000000" fill-opacity="0.85"/>
 </g>
</svg>
