<?xml version="1.0" encoding="UTF-8"?>
<!--Generator: Apple Native CoreSVG 232.5-->
<!DOCTYPE svg
PUBLIC "-//W3C//DTD SVG 1.1//EN"
       "http://www.w3.org/Graphics/SVG/1.1/DTD/svg11.dtd">
<svg version="1.1" xmlns="http://www.w3.org/2000/svg" xmlns:xlink="http://www.w3.org/1999/xlink" width="62.3352" height="61.9873">
 <g>
  <rect height="61.9873" opacity="0" width="62.3352" x="0" y="0"/>
  <path d="M18.3136 7.42188L18.3136 9.61914C18.3136 10.0098 18.338 10.4004 18.4113 10.7422L17.8497 10.7422C15.5548 10.7422 14.3829 12.2314 14.3829 14.5264L14.3829 51.4404C14.3829 53.8818 15.7013 55.2246 18.2404 55.2246L43.7531 55.2246C46.2921 55.2246 47.5861 53.8818 47.5861 51.4404L47.5861 34.4727L51.5167 30.542L51.5167 51.4893C51.5167 56.6162 49.0021 59.1553 43.9484 59.1553L18.0206 59.1553C12.9913 59.1553 10.4523 56.6162 10.4523 51.4893L10.4523 14.4775C10.4523 9.47266 12.8937 6.81152 17.7521 6.81152L18.338 6.81152C18.3136 7.00684 18.3136 7.22656 18.3136 7.42188ZM51.513 14.3581L47.5861 18.2812L47.5861 14.5264C47.5861 12.2314 46.4386 10.7422 44.1437 10.7422L43.5578 10.7422C43.631 10.4004 43.6554 10.0098 43.6554 9.61914L43.6554 7.42188C43.6554 7.22656 43.6554 7.00684 43.631 6.81152L44.2169 6.81152C49.0597 6.81152 51.477 9.42921 51.513 14.3581ZM36.2824 5.00488L38.5285 5.00488C39.9689 5.00488 40.8234 5.9082 40.8234 7.42188L40.8234 9.98535C40.8234 11.499 39.9689 12.4023 38.5285 12.4023L23.465 12.4023C22.0245 12.4023 21.1701 11.499 21.1701 9.98535L21.1701 7.42188C21.1701 5.9082 22.0245 5.00488 23.465 5.00488L25.6867 5.00488C25.8576 2.24609 28.1525 0 30.9845 0C33.8165 0 36.1115 2.24609 36.2824 5.00488ZM28.8605 5.2002C28.8605 6.34766 29.8126 7.32422 30.9845 7.32422C32.1808 7.32422 33.1085 6.34766 33.1085 5.2002C33.1085 4.00391 32.1808 3.05176 30.9845 3.05176C29.8126 3.05176 28.8605 4.00391 28.8605 5.2002Z" fill="#000000" fill-opacity="0.85"/>
  <path d="M25.1495 42.3096C25.1495 43.1396 24.4415 43.8232 23.6115 43.8232L20.2179 43.8232C19.3878 43.8232 18.6798 43.1396 18.6798 42.3096C18.6798 41.4795 19.3634 40.7959 20.2179 40.7959L23.6115 40.7959C24.466 40.7959 25.1495 41.4795 25.1495 42.3096ZM31.1586 34.6924L20.2179 34.6924C19.3634 34.6924 18.6798 34.0088 18.6798 33.1543C18.6798 32.3242 19.3634 31.665 20.2179 31.665L34.1889 31.665ZM42.6202 23.2421L39.8342 26.0254L20.2179 26.0254C19.3878 26.0254 18.6798 25.3418 18.6798 24.5117C18.6798 23.6816 19.3878 22.9736 20.2179 22.9736L41.7755 22.9736C42.0872 22.9736 42.3783 23.0735 42.6202 23.2421Z" fill="#000000" fill-opacity="0.85"/>
  <path d="M56.4972 20.874L58.3283 19.0186C59.2072 18.1396 59.2072 16.9434 58.3527 16.0889L57.7667 15.5029C56.9855 14.7217 55.7648 14.8193 54.9347 15.625L53.1037 17.4561ZM29.129 45.459L34.1095 43.2373L54.6906 22.7051L51.2482 19.3115L30.716 39.8438L28.3722 44.6533C28.1525 45.0928 28.6652 45.6543 29.129 45.459Z" fill="#000000" fill-opacity="0.85"/>
 </g>
</svg>
