<?xml version="1.0" encoding="UTF-8"?>
<!--Generator: Apple Native CoreSVG 232.5-->
<!DOCTYPE svg
PUBLIC "-//W3C//DTD SVG 1.1//EN"
       "http://www.w3.org/Graphics/SVG/1.1/DTD/svg11.dtd">
<svg version="1.1" xmlns="http://www.w3.org/2000/svg" xmlns:xlink="http://www.w3.org/1999/xlink" width="16.3208" height="22.3633">
 <g>
  <rect height="22.3633" opacity="0" width="16.3208" x="0" y="0"/>
  <path d="M16.3208 11.1755C16.3086 10.5652 16.095 10.0708 15.5945 9.58252L6.37207 0.549316C5.99365 0.177002 5.5542 0 5.01099 0C3.93677 0 3.05176 0.866699 3.05176 1.94092C3.05176 2.47192 3.27148 2.96631 3.68042 3.36914L11.7249 11.1694L3.68042 18.9819C3.27759 19.3787 3.05176 19.873 3.05176 20.4163C3.05176 21.4844 3.93677 22.3572 5.01099 22.3572C5.54199 22.3572 5.99365 22.1802 6.37207 21.8018L15.5945 12.7686C16.1011 12.2742 16.3208 11.7798 16.3208 11.1755Z" fill="#ffffff"/>
 </g>
</svg>
