<?xml version="1.0" encoding="UTF-8"?>
<!--Generator: Apple Native CoreSVG 232.5-->
<!DOCTYPE svg
PUBLIC "-//W3C//DTD SVG 1.1//EN"
       "http://www.w3.org/Graphics/SVG/1.1/DTD/svg11.dtd">
<svg version="1.1" xmlns="http://www.w3.org/2000/svg" xmlns:xlink="http://www.w3.org/1999/xlink" width="20.8984" height="21.9604">
 <g>
  <rect height="21.9604" opacity="0" width="20.8984" x="0" y="0"/>
  <path d="M2.0874 21.9482L18.457 21.9482C19.7632 21.9482 20.5444 21.3379 20.5444 20.3247C20.5444 17.1753 16.6016 12.8296 10.2661 12.8296C3.94287 12.8296 0 17.1753 0 20.3247C0 21.3379 0.78125 21.9482 2.0874 21.9482ZM10.2783 10.6445C12.8906 10.6445 15.1611 8.30078 15.1611 5.24902C15.1611 2.23389 12.8906 0 10.2783 0C7.66602 0 5.39551 2.28271 5.39551 5.27344C5.39551 8.30078 7.65381 10.6445 10.2783 10.6445Z" fill="#59adc4"/>
 </g>
</svg>
