<?xml version="1.0" encoding="UTF-8"?>
<!--Generator: Apple Native CoreSVG 232.5-->
<!DOCTYPE svg
PUBLIC "-//W3C//DTD SVG 1.1//EN"
       "http://www.w3.org/Graphics/SVG/1.1/DTD/svg11.dtd">
<svg version="1.1" xmlns="http://www.w3.org/2000/svg" xmlns:xlink="http://www.w3.org/1999/xlink" width="28.0396" height="25.4517">
 <g>
  <rect height="25.4517" opacity="0" width="28.0396" x="0" y="0"/>
  <path d="M27.6855 11.0962C27.6855 17.1753 21.8506 22.1802 13.0493 22.1802C12.8906 22.1802 12.7319 22.168 12.5732 22.1558C12.4023 22.1558 12.2314 22.2168 12.0239 22.3633C9.94873 23.8525 6.29883 25.4517 4.83398 25.4517C3.89404 25.4517 3.62549 24.6826 4.10156 24.0723C4.56543 23.4619 5.78613 22.1191 6.46973 20.9961C6.56738 20.813 6.50635 20.6299 6.32324 20.5322C2.40479 18.4326 0 15.0024 0 11.0962C0 4.95605 6.15234 0 13.8428 0C21.5332 0 27.6855 4.95605 27.6855 11.0962ZM17.8955 11.2061C17.8955 12.2192 18.7134 13.0371 19.7266 13.0371C20.7153 13.0371 21.5576 12.2192 21.5576 11.2061C21.5576 10.1929 20.7153 9.375 19.7266 9.375C18.7134 9.375 17.8955 10.1929 17.8955 11.2061ZM12.0117 11.2061C12.0117 12.2192 12.8296 13.0371 13.8428 13.0371C14.856 13.0371 15.6738 12.2192 15.6738 11.2061C15.6738 10.1929 14.856 9.375 13.8428 9.375C12.8296 9.375 12.0117 10.1929 12.0117 11.2061ZM6.14014 11.2061C6.14014 12.2192 6.97021 13.0371 7.97119 13.0371C8.97217 13.0371 9.79004 12.2192 9.79004 11.2061C9.79004 10.1929 8.95996 9.375 7.97119 9.375C6.97021 9.375 6.14014 10.1929 6.14014 11.2061Z" fill="#59adc4"/>
 </g>
</svg>
