<?xml version="1.0" encoding="UTF-8"?>
<!--Generator: Apple Native CoreSVG 232.5-->
<!DOCTYPE svg
PUBLIC "-//W3C//DTD SVG 1.1//EN"
       "http://www.w3.org/Graphics/SVG/1.1/DTD/svg11.dtd">
<svg version="1.1" xmlns="http://www.w3.org/2000/svg" xmlns:xlink="http://www.w3.org/1999/xlink" width="25.2563" height="24.9146">
 <g>
  <rect height="24.9146" opacity="0" width="25.2563" x="0" y="0"/>
  <path d="M24.9023 12.4634C24.9023 19.2749 19.2627 24.9146 12.4512 24.9146C5.65186 24.9146 0 19.2749 0 12.4634C0 5.66406 5.63965 0.012207 12.439 0.012207C19.2505 0.012207 24.9023 5.66406 24.9023 12.4634ZM7.84912 6.23779C6.43311 6.23779 5.7251 6.9458 5.7251 8.3374L5.7251 16.5894C5.7251 17.9932 6.43311 18.689 7.84912 18.689L17.0532 18.689C18.4692 18.689 19.1772 17.9932 19.1772 16.5894L19.1772 8.3374C19.1772 6.9458 18.4692 6.23779 17.0532 6.23779ZM18.0176 10.2783L18.0176 16.6504C18.0176 17.2485 17.7246 17.5293 17.1387 17.5293L7.75146 17.5293C7.18994 17.5293 6.88477 17.2485 6.88477 16.6504L6.88477 10.2783C6.88477 9.65576 7.21436 9.33838 7.8125 9.33838L17.0898 9.33838C17.6758 9.33838 18.0176 9.65576 18.0176 10.2783ZM8.8623 15.0635C8.56934 15.0635 8.47168 15.1367 8.47168 15.4175L8.47168 15.8936C8.47168 16.1865 8.56934 16.272 8.8623 16.272L9.32617 16.272C9.61914 16.272 9.70459 16.1865 9.70459 15.8936L9.70459 15.4175C9.70459 15.1367 9.61914 15.0635 9.32617 15.0635ZM11.0962 15.0635C10.8032 15.0635 10.7178 15.1367 10.7178 15.4175L10.7178 15.8936C10.7178 16.1865 10.8032 16.272 11.0962 16.272L11.5601 16.272C11.853 16.272 11.9507 16.1865 11.9507 15.8936L11.9507 15.4175C11.9507 15.1367 11.853 15.0635 11.5601 15.0635ZM13.3423 15.0635C13.0493 15.0635 12.9639 15.1367 12.9639 15.4175L12.9639 15.8936C12.9639 16.1865 13.0493 16.272 13.3423 16.272L13.8062 16.272C14.0991 16.272 14.1846 16.1865 14.1846 15.8936L14.1846 15.4175C14.1846 15.1367 14.0991 15.0635 13.8062 15.0635ZM8.8623 12.854C8.56934 12.854 8.47168 12.9395 8.47168 13.2324L8.47168 13.7085C8.47168 13.9893 8.56934 14.0625 8.8623 14.0625L9.32617 14.0625C9.61914 14.0625 9.70459 13.9893 9.70459 13.7085L9.70459 13.2324C9.70459 12.9395 9.61914 12.854 9.32617 12.854ZM11.0962 12.854C10.8032 12.854 10.7178 12.9395 10.7178 13.2324L10.7178 13.7085C10.7178 13.9893 10.8032 14.0625 11.0962 14.0625L11.5601 14.0625C11.853 14.0625 11.9507 13.9893 11.9507 13.7085L11.9507 13.2324C11.9507 12.9395 11.853 12.854 11.5601 12.854ZM13.3423 12.854C13.0493 12.854 12.9639 12.9395 12.9639 13.2324L12.9639 13.7085C12.9639 13.9893 13.0493 14.0625 13.3423 14.0625L13.8062 14.0625C14.0991 14.0625 14.1846 13.9893 14.1846 13.7085L14.1846 13.2324C14.1846 12.9395 14.0991 12.854 13.8062 12.854ZM15.5884 12.854C15.2832 12.854 15.1978 12.9395 15.1978 13.2324L15.1978 13.7085C15.1978 13.9893 15.2832 14.0625 15.5884 14.0625L16.04 14.0625C16.333 14.0625 16.4307 13.9893 16.4307 13.7085L16.4307 13.2324C16.4307 12.9395 16.333 12.854 16.04 12.854ZM11.0962 10.6445C10.8032 10.6445 10.7178 10.7422 10.7178 11.0229L10.7178 11.5112C10.7178 11.7798 10.8032 11.8652 11.0962 11.8652L11.5601 11.8652C11.853 11.8652 11.9507 11.7798 11.9507 11.5112L11.9507 11.0229C11.9507 10.7422 11.853 10.6445 11.5601 10.6445ZM13.3423 10.6445C13.0493 10.6445 12.9639 10.7422 12.9639 11.0229L12.9639 11.5112C12.9639 11.7798 13.0493 11.8652 13.3423 11.8652L13.8062 11.8652C14.0991 11.8652 14.1846 11.7798 14.1846 11.5112L14.1846 11.0229C14.1846 10.7422 14.0991 10.6445 13.8062 10.6445ZM15.5884 10.6445C15.2832 10.6445 15.1978 10.7422 15.1978 11.0229L15.1978 11.5112C15.1978 11.7798 15.2832 11.8652 15.5884 11.8652L16.04 11.8652C16.333 11.8652 16.4307 11.7798 16.4307 11.5112L16.4307 11.0229C16.4307 10.7422 16.333 10.6445 16.04 10.6445Z" fill="#ff3b30"/>
 </g>
</svg>
