<?xml version="1.0" encoding="utf-8"?>
<svg version="1.1" xmlns:xlink="http://www.w3.org/1999/xlink" width="240px" height="33px" viewBox="95 466  240 33" xmlns="http://www.w3.org/2000/svg">
  <path d="M 96 473  A 6 6 0 0 1 102 467 L 328 467  A 6 6 0 0 1 334 473 L 334 492  A 6 6 0 0 1 328 498 L 102 498  A 6 6 0 0 1 96 492 L 96 473  Z " fill-rule="nonzero" fill="#ffffff" stroke="none" />
  <path d="M 95.5 473  A 6.5 6.5 0 0 1 102 466.5 L 328 466.5  A 6.5 6.5 0 0 1 334.5 473 L 334.5 492  A 6.5 6.5 0 0 1 328 498.5 L 102 498.5  A 6.5 6.5 0 0 1 95.5 492 L 95.5 473  Z " stroke-width="1" stroke="#d7d7d7" fill="none" stroke-opacity="0.501960784313725" />
</svg>