<?xml version="1.0" encoding="UTF-8"?>
<!--Generator: Apple Native CoreSVG 232.5-->
<!DOCTYPE svg
PUBLIC "-//W3C//DTD SVG 1.1//EN"
       "http://www.w3.org/Graphics/SVG/1.1/DTD/svg11.dtd">
<svg version="1.1" xmlns="http://www.w3.org/2000/svg" xmlns:xlink="http://www.w3.org/1999/xlink" width="25.2563" height="24.9146">
 <g>
  <rect height="24.9146" opacity="0" width="25.2563" x="0" y="0"/>
  <path d="M24.9023 12.4512C24.9023 19.2505 19.2627 24.9023 12.4512 24.9023C5.65186 24.9023 0 19.2505 0 12.4512C0 5.63965 5.63965 0 12.439 0C19.2505 0 24.9023 5.63965 24.9023 12.4512ZM11.8896 4.99268L11.8896 11.2427C11.6699 11.2671 11.4624 11.2915 11.2549 11.3281L11.2549 5.61523C11.2549 5.17578 10.8765 4.82178 10.437 4.82178C9.99756 4.82178 9.63135 5.17578 9.63135 5.61523L9.63135 11.853C9.39941 11.9507 9.21631 12.0728 9.0332 12.1826L9.0332 7.91016C9.0332 7.4707 8.65479 7.09229 8.22754 7.09229C7.76367 7.09229 7.39746 7.4707 7.39746 7.91016L7.39746 14.7095C7.39746 17.8955 9.47266 19.8608 12.439 19.8608C14.6606 19.8608 16.1865 18.9697 17.1997 16.8945C17.7612 15.8081 18.1885 14.5142 18.6401 13.0127C18.8354 12.3901 19.104 11.6211 19.104 11.2793C19.104 10.8765 18.7988 10.5957 18.3838 10.5957C17.8955 10.5957 17.627 10.8887 17.2852 11.5845L16.2598 13.7329C16.1621 13.9648 16.0645 14.0381 15.9546 14.0381C15.7959 14.0381 15.7104 13.9404 15.7104 13.7207L15.7104 6.05469C15.7104 5.61523 15.3442 5.24902 14.917 5.24902C14.4653 5.24902 14.1113 5.61523 14.1113 6.05469L14.1113 11.499C13.916 11.4502 13.7085 11.377 13.501 11.3159L13.501 4.99268C13.501 4.56543 13.147 4.18701 12.6953 4.18701C12.2437 4.18701 11.8896 4.56543 11.8896 4.99268Z" fill="#007aff"/>
 </g>
</svg>
