<?xml version="1.0" encoding="UTF-8"?>
<!--Generator: Apple Native CoreSVG 232.5-->
<!DOCTYPE svg
PUBLIC "-//W3C//DTD SVG 1.1//EN"
       "http://www.w3.org/Graphics/SVG/1.1/DTD/svg11.dtd">
<svg version="1.1" xmlns="http://www.w3.org/2000/svg" xmlns:xlink="http://www.w3.org/1999/xlink" width="25.2563" height="24.9146">
 <g>
  <rect height="24.9146" opacity="0" width="25.2563" x="0" y="0"/>
  <path d="M24.9023 12.4512C24.9023 19.2505 19.2627 24.9023 12.4512 24.9023C5.65186 24.9023 0 19.2505 0 12.4512C0 5.63965 5.63965 0 12.439 0C19.2505 0 24.9023 5.63965 24.9023 12.4512ZM11.731 6.39648L7.53174 10.5835C7.36084 10.7544 7.2876 10.9741 7.2876 11.2427C7.2876 11.7554 7.67822 12.1582 8.20312 12.1582C8.45947 12.1582 8.70361 12.0483 8.87451 11.8774L10.3638 10.376L11.6211 8.8623L11.5112 11.5356L11.5112 17.7979C11.5112 18.3594 11.9141 18.75 12.4634 18.75C13.0249 18.75 13.4155 18.3594 13.4155 17.7979L13.4155 11.5356L13.3057 8.8501L14.5874 10.376L16.0645 11.8774C16.2354 12.0605 16.4673 12.1582 16.7358 12.1582C17.2607 12.1582 17.6636 11.7554 17.6636 11.2427C17.6636 10.9741 17.5659 10.7544 17.395 10.5835L13.208 6.39648C12.9639 6.15234 12.7441 6.04248 12.4634 6.04248C12.1948 6.04248 11.9873 6.14014 11.731 6.39648Z" fill="#8e8e93"/>
 </g>
</svg>
