<?xml version="1.0" encoding="UTF-8"?>
<!--Generator: Apple Native CoreSVG 232.5-->
<!DOCTYPE svg
PUBLIC "-//W3C//DTD SVG 1.1//EN"
       "http://www.w3.org/Graphics/SVG/1.1/DTD/svg11.dtd">
<svg version="1.1" xmlns="http://www.w3.org/2000/svg" xmlns:xlink="http://www.w3.org/1999/xlink" width="47.1313" height="77.6001">
 <g>
  <rect height="77.6001" opacity="0" width="47.1313" x="0" y="0"/>
  <path d="M9.96094 77.5269L37.1338 77.5269C43.103 77.5269 47.0947 73.7183 47.0947 68.0054L47.0947 9.52148C47.0947 3.80859 43.103 0 37.1338 0L9.96094 0C3.9917 0 0 3.80859 0 9.52148L0 68.0054C0 73.7183 3.9917 77.5269 9.96094 77.5269ZM10.73 71.6309C7.61719 71.6309 5.896 69.9829 5.896 67.0532L5.896 10.4736C5.896 7.54395 7.61719 5.896 10.73 5.896L36.4014 5.896C39.4775 5.896 41.1987 7.54395 41.1987 10.4736L41.1987 67.0532C41.1987 69.9829 39.4775 71.6309 36.4014 71.6309Z" fill="#5e5ce6"/>
  <path d="M12.4878 66.6504L15.9302 66.6504C16.7358 66.6504 17.3584 66.1011 17.3584 65.332L17.3584 61.7798C17.3584 61.0107 16.7358 60.4614 15.9302 60.4614L12.4878 60.4614C11.6821 60.4614 11.1328 61.0107 11.1328 61.7798L11.1328 65.332C11.1328 66.1011 11.6821 66.6504 12.4878 66.6504ZM21.7529 66.6504L25.2319 66.6504C26.0376 66.6504 26.6602 66.1011 26.6602 65.332L26.6602 61.7798C26.6602 61.0107 26.0376 60.4614 25.2319 60.4614L21.7529 60.4614C20.9839 60.4614 20.4346 61.0107 20.4346 61.7798L20.4346 65.332C20.4346 66.1011 20.9839 66.6504 21.7529 66.6504ZM31.0547 66.6504L34.4971 66.6504C35.3394 66.6504 35.9253 66.1011 35.9253 65.332L35.9253 61.7798C35.9253 61.0107 35.3394 60.4614 34.4971 60.4614L31.0547 60.4614C30.2856 60.4614 29.7363 61.0107 29.7363 61.7798L29.7363 65.332C29.7363 66.1011 30.2856 66.6504 31.0547 66.6504ZM12.4878 37.207L15.9302 37.207C16.7358 37.207 17.3584 36.6577 17.3584 35.8521L17.3584 32.3364C17.3584 31.5308 16.7358 30.9814 15.9302 30.9814L12.4878 30.9814C11.6821 30.9814 11.1328 31.5308 11.1328 32.3364L11.1328 35.8521C11.1328 36.6577 11.6821 37.207 12.4878 37.207ZM21.7529 37.207L25.2319 37.207C26.0376 37.207 26.6602 36.6577 26.6602 35.8521L26.6602 32.3364C26.6602 31.5308 26.0376 30.9814 25.2319 30.9814L21.7529 30.9814C20.9839 30.9814 20.4346 31.5308 20.4346 32.3364L20.4346 35.8521C20.4346 36.6577 20.9839 37.207 21.7529 37.207ZM12.4878 27.2461L15.9302 27.2461C16.7358 27.2461 17.3584 26.6968 17.3584 25.9277L17.3584 22.3755C17.3584 21.5698 16.7358 21.0205 15.9302 21.0205L12.4878 21.0205C11.6821 21.0205 11.1328 21.5698 11.1328 22.3755L11.1328 25.9277C11.1328 26.6968 11.6821 27.2461 12.4878 27.2461ZM21.7529 27.2461L25.2319 27.2461C26.0376 27.2461 26.6602 26.6968 26.6602 25.9277L26.6602 22.3755C26.6602 21.5698 26.0376 21.0205 25.2319 21.0205L21.7529 21.0205C20.9839 21.0205 20.4346 21.5698 20.4346 22.3755L20.4346 25.9277C20.4346 26.6968 20.9839 27.2461 21.7529 27.2461ZM31.0547 27.2461L34.4971 27.2461C35.3394 27.2461 35.9253 26.6968 35.9253 25.9277L35.9253 22.3755C35.9253 21.5698 35.3394 21.0205 34.4971 21.0205L31.0547 21.0205C30.2856 21.0205 29.7363 21.5698 29.7363 22.3755L29.7363 25.9277C29.7363 26.6968 30.2856 27.2461 31.0547 27.2461ZM12.4878 17.3218L15.9302 17.3218C16.7358 17.3218 17.3584 16.7725 17.3584 15.9668L17.3584 12.4512C17.3584 11.6455 16.7358 11.0962 15.9302 11.0962L12.4878 11.0962C11.6821 11.0962 11.1328 11.6455 11.1328 12.4512L11.1328 15.9668C11.1328 16.7725 11.6821 17.3218 12.4878 17.3218ZM21.7529 17.3218L25.2319 17.3218C26.0376 17.3218 26.6602 16.7725 26.6602 15.9668L26.6602 12.4512C26.6602 11.6455 26.0376 11.0962 25.2319 11.0962L21.7529 11.0962C20.9839 11.0962 20.4346 11.6455 20.4346 12.4512L20.4346 15.9668C20.4346 16.7725 20.9839 17.3218 21.7529 17.3218ZM31.0547 17.3218L34.4971 17.3218C35.3394 17.3218 35.9253 16.7725 35.9253 15.9668L35.9253 12.4512C35.9253 11.6455 35.3394 11.0962 34.4971 11.0962L31.0547 11.0962C30.2856 11.0962 29.7363 11.6455 29.7363 12.4512L29.7363 15.9668C29.7363 16.7725 30.2856 17.3218 31.0547 17.3218Z" fill="#66d4cf"/>
 </g>
</svg>
