<?xml version="1.0" encoding="UTF-8"?>
<!--Generator: Apple Native CoreSVG 232.5-->
<!DOCTYPE svg
PUBLIC "-//W3C//DTD SVG 1.1//EN"
       "http://www.w3.org/Graphics/SVG/1.1/DTD/svg11.dtd">
<svg version="1.1" xmlns="http://www.w3.org/2000/svg" xmlns:xlink="http://www.w3.org/1999/xlink" width="81.4819" height="81.9946">
 <g>
  <rect height="81.9946" opacity="0" width="81.4819" x="0" y="0"/>
  <path d="M67.3828 42.5903C68.0786 42.5903 68.5547 42.1143 68.6279 41.3818C69.8364 31.604 70.3125 31.3477 80.2368 29.7363C81.0059 29.6265 81.4819 29.2236 81.4819 28.5278C81.4819 27.832 81.0059 27.3926 80.3833 27.2827C70.3857 25.3784 69.8364 25.415 68.6279 15.6372C68.5547 14.9048 68.0786 14.4287 67.3828 14.4287C66.7236 14.4287 66.2476 14.9048 66.1377 15.6006C64.8926 25.5249 64.5264 25.8545 54.3823 27.2827C53.7598 27.356 53.2837 27.832 53.2837 28.5278C53.2837 29.187 53.7598 29.6265 54.3823 29.7363C64.5264 31.6772 64.856 31.6772 66.1377 41.4551C66.2476 42.1143 66.7236 42.5903 67.3828 42.5903ZM49.8779 17.7979C50.3174 17.7979 50.5371 17.5415 50.6104 17.1387C51.7456 11.0229 51.709 10.8765 58.0811 9.66797C58.4839 9.59473 58.7769 9.33838 58.7769 8.89893C58.7769 8.45947 58.4839 8.20312 58.0811 8.12988C51.709 6.84814 51.9287 6.70166 50.6104 0.65918C50.5371 0.256348 50.3174 0 49.8779 0C49.4385 0 49.1821 0.256348 49.1089 0.65918C47.8271 6.70166 48.0469 6.84814 41.6748 8.12988C41.2354 8.20312 40.979 8.45947 40.979 8.89893C40.979 9.33838 41.2354 9.59473 41.6748 9.66797C48.0469 10.9497 47.9736 11.0229 49.1089 17.1387C49.1821 17.5415 49.4385 17.7979 49.8779 17.7979Z" fill="#ffd60a"/>
  <path d="M39.8438 76.062C53.064 76.062 63.8306 69.4702 68.7012 58.0444C69.2505 56.7627 69.1772 55.6274 68.5181 54.9683C68.0054 54.4189 66.98 54.3457 65.8813 54.7485C62.8418 55.957 59.3994 56.543 55.4077 56.543C38.8184 56.543 28.125 46.1426 28.125 29.8828C28.125 25.7446 28.894 21.0938 30.1392 18.5669C30.7617 17.2852 30.7617 16.1499 30.1758 15.4907C29.5532 14.7583 28.418 14.6484 26.9897 15.1978C15.7471 19.6655 8.20312 31.4575 8.20312 44.8608C8.20312 62.6587 21.3501 76.062 39.8438 76.062Z" fill="#5e5ce6"/>
 </g>
</svg>
