<?xml version="1.0" encoding="UTF-8"?>
<!--Generator: Apple Native CoreSVG 232.5-->
<!DOCTYPE svg
PUBLIC "-//W3C//DTD SVG 1.1//EN"
       "http://www.w3.org/Graphics/SVG/1.1/DTD/svg11.dtd">
<svg version="1.1" xmlns="http://www.w3.org/2000/svg" xmlns:xlink="http://www.w3.org/1999/xlink" width="79.248" height="79.5044">
 <g>
  <rect height="79.5044" opacity="0" width="79.248" x="0" y="0"/>
  <path d="M39.624 14.2456C41.3452 14.2456 42.7734 12.8174 42.7734 11.0596L42.7734 3.18604C42.7734 1.42822 41.3452 0 39.624 0C37.8662 0 36.438 1.42822 36.438 3.18604L36.438 11.0596C36.438 12.8174 37.8662 14.2456 39.624 14.2456ZM57.5684 21.7529C58.8135 22.9614 60.8276 22.998 62.0728 21.7529L67.6758 16.1499C68.8843 14.9414 68.8843 12.8906 67.6758 11.6455C66.4673 10.437 64.4531 10.437 63.208 11.6455L57.5684 17.2852C56.3599 18.5303 56.3599 20.5444 57.5684 21.7529ZM65.0024 39.7339C65.0024 41.4551 66.4673 42.8833 68.1885 42.8833L76.062 42.8833C77.7832 42.8833 79.2114 41.4551 79.2114 39.7339C79.2114 38.0127 77.7832 36.5479 76.062 36.5479L68.1885 36.5479C66.4673 36.5479 65.0024 38.0127 65.0024 39.7339ZM57.5684 57.7148C56.3599 58.96 56.3599 60.9741 57.5684 62.1826L63.208 67.8589C64.4531 69.0308 66.4673 68.9941 67.6758 67.8223C68.8843 66.5771 68.8843 64.563 67.6758 63.3545L62.0361 57.7148C60.8276 56.543 58.8135 56.543 57.5684 57.7148ZM39.624 65.2222C37.8662 65.2222 36.438 66.6504 36.438 68.3716L36.438 76.2817C36.438 78.0029 37.8662 79.4312 39.624 79.4312C41.3452 79.4312 42.7734 78.0029 42.7734 76.2817L42.7734 68.3716C42.7734 66.6504 41.3452 65.2222 39.624 65.2222ZM21.6431 57.7148C20.3979 56.543 18.3472 56.543 17.1387 57.7148L11.5356 63.3179C10.3271 64.5264 10.3271 66.5405 11.499 67.7856C12.7075 68.9575 14.7583 68.9941 16.0034 67.8223L21.6064 62.1826C22.8149 60.9741 22.8149 58.96 21.6431 57.7148ZM14.209 39.7339C14.209 38.0127 12.7441 36.5479 11.0229 36.5479L3.14941 36.5479C1.42822 36.5479 0 38.0127 0 39.7339C0 41.4551 1.42822 42.8833 3.14941 42.8833L11.0229 42.8833C12.7441 42.8833 14.209 41.4551 14.209 39.7339ZM21.6064 21.7529C22.8149 20.5811 22.8149 18.4937 21.6431 17.2852L16.04 11.6455C14.8315 10.4736 12.7808 10.437 11.5723 11.6455C10.3638 12.8906 10.3638 14.9414 11.5356 16.1133L17.1387 21.7529C18.3472 22.9614 20.3613 22.9614 21.6064 21.7529Z" fill="#ff9f0a"/>
  <path d="M39.5874 58.4106C49.7681 58.4106 58.2275 49.9512 58.2275 39.7339C58.2275 29.48 49.7681 21.0205 39.5874 21.0205C29.4067 21.0205 20.9473 29.48 20.9473 39.7339C20.9473 49.9512 29.4067 58.4106 39.5874 58.4106Z" fill="#ff9f0a"/>
 </g>
</svg>
